<?xml version="1.0" encoding="iso-8859-1"?>
<!-- Generator: Adobe Illustrator 19.0.0, SVG Export Plug-In . SVG Version: 6.00 Build 0)  -->
<svg version="1.1" id="Capa_1" xmlns="http://www.w3.org/2000/svg" xmlns:xlink="http://www.w3.org/1999/xlink" x="0px" y="0px"
	 viewBox="0 0 512 512" style="enable-background:new 0 0 512 512;" xml:space="preserve">
<g>
	<rect x="189.896" y="379.586" style="fill:#47586B;" width="141.241" height="52.966"/>
	<path style="fill:#47586B;" d="M410.568,512H110.43v-28.954c0-13.259,10.752-24.011,24.011-24.011h252.116
		c13.259,0,24.011,10.752,24.011,24.011V512z"/>
</g>
<g>
	<path style="fill:#28384C;" d="M357.602,459.034H163.395c-9.71,0-17.655-7.945-17.655-17.655l0,0
		c0-9.71,7.945-17.655,17.655-17.655h194.207c9.71,0,17.655,7.945,17.655,17.655l0,0
		C375.257,451.09,367.313,459.034,357.602,459.034z"/>
	<path style="fill:#28384C;" d="M366.43,388.414c0,0-12.606-44.138,19.897-185.379C418.839,61.793,329.433,17.655,264.418,17.655
		L207.524,0l16.252,44.138c0,0-40.633,0-48.764,26.483l-26.809,29.122c-11.652,12.659-21.778,26.845-30.658,41.931
		c-12.623,21.451-29.131,43.652,0.574,61.369c0,0,32.512,35.31,65.015-8.828c0,0,16.252-17.655,40.633,0c0,0,16.252,8.828,40.633,0
		c0,0-105.498,26.483-113.62,194.207C150.798,388.414,374.56,388.414,366.43,388.414z"/>
</g>
<g>
	<path style="fill:#47586B;" d="M225.188,114.759c-2.26,0-4.52-0.865-6.241-2.586c-3.452-3.452-3.452-9.031,0-12.482l17.655-17.655
		c3.443-3.452,9.031-3.452,12.482,0s3.452,9.031,0,12.482l-17.655,17.655C229.708,113.894,227.448,114.759,225.188,114.759z"/>
	<path style="fill:#47586B;" d="M151.672,170.893c-3.434-3.46-9.022-3.496-12.482-0.062l-27.727,27.436
		c1.933,1.615,4.061,3.222,6.674,4.776c0,0,2.79,2.966,7.442,6.1l26.024-25.75C155.071,179.95,155.106,174.362,151.672,170.893z"/>
</g>
<g>
</g>
<g>
</g>
<g>
</g>
<g>
</g>
<g>
</g>
<g>
</g>
<g>
</g>
<g>
</g>
<g>
</g>
<g>
</g>
<g>
</g>
<g>
</g>
<g>
</g>
<g>
</g>
<g>
</g>
</svg>
